<?xml version="1.0" standalone="no"?>
<!DOCTYPE svg PUBLIC "-//W3C//DTD SVG 20010904//EN"
 "http://www.w3.org/TR/2001/REC-SVG-20010904/DTD/svg10.dtd">
<svg version="1.0" xmlns="http://www.w3.org/2000/svg"
 width="100.000000pt" height="100.000000pt" viewBox="0 0 100.000000 100.000000"
 preserveAspectRatio="xMidYMid meet">
<metadata>
Created by potrace 1.14, written by Peter Selinger 2001-2017
</metadata>
<g transform="translate(0.000000,100.000000) scale(0.100000,-0.100000)"
fill="#000000" stroke="none">
<path d="M447 895 c-33 -17 -50 -33 -65 -62 -15 -27 -16 -83 -2 -83 6 0 10 -7
10 -15 0 -9 11 -28 25 -43 29 -31 31 -42 9 -42 -21 0 -94 -72 -94 -93 0 -9 -4
-19 -10 -22 -5 -3 -10 -21 -10 -40 0 -19 -4 -37 -10 -40 -6 -3 -10 -17 -10
-31 0 -26 -14 -56 -43 -88 -16 -18 -30 -21 -107 -22 -80 0 -92 -3 -115 -24
-14 -13 -25 -33 -25 -45 0 -24 80 -105 104 -105 8 0 18 -4 21 -10 3 -5 16 -10
29 -10 12 0 28 -6 34 -13 20 -19 571 -17 632 2 25 8 49 18 55 23 5 4 15 8 23
8 22 0 102 81 102 105 0 12 -11 32 -25 45 -23 21 -35 24 -115 24 -77 1 -91 4
-107 22 -29 32 -43 62 -43 88 0 14 -4 28 -10 31 -5 3 -10 21 -10 40 0 19 -4
37 -10 40 -5 3 -10 13 -10 22 0 21 -73 93 -94 93 -22 0 -20 11 9 42 14 15 25
34 25 43 0 8 5 15 10 15 14 0 13 56 -2 83 -34 66 -111 94 -171 62z m93 -75
c11 -11 20 -28 20 -37 -1 -16 -58 -90 -64 -81 -1 1 -14 18 -29 36 -15 19 -27
40 -27 48 0 21 37 54 60 54 11 0 29 -9 40 -20z m-131 -290 c-10 -21 -19 -46
-19 -54 0 -8 -4 -17 -9 -20 -11 -7 1 48 19 87 7 15 17 27 21 27 4 0 -1 -18
-12 -40z m194 5 c9 -20 17 -46 17 -58 -1 -14 -7 -5 -17 23 -8 25 -20 51 -25
58 -6 7 -6 12 -1 12 5 0 17 -16 26 -35z m-93 11 c0 -1 11 -34 25 -72 27 -76
31 -119 14 -173 -18 -57 -25 -66 -50 -66 -19 0 -26 9 -41 50 -24 67 -23 107 7
189 14 38 25 71 25 72 0 2 5 4 10 4 6 0 10 -2 10 -4z m-125 -273 c9 -27 -1
-29 -43 -7 -33 16 -50 34 -34 34 12 0 51 82 54 112 1 13 4 -8 8 -47 4 -38 11
-80 15 -92z m297 38 c18 -21 15 -26 -34 -51 -35 -17 -42 -11 -28 24 5 15 10
53 10 84 l1 57 17 -47 c9 -26 25 -56 34 -67z m-510 -85 c4 -6 28 -9 55 -8 47
2 142 -32 143 -52 0 -9 -156 3 -180 14 -8 4 -37 18 -64 31 -44 21 -47 24 -25
29 29 7 61 1 71 -14z m748 10 c0 -2 -28 -17 -62 -34 -46 -22 -85 -32 -145 -37
-46 -4 -83 -3 -83 1 1 20 96 54 144 52 32 -2 51 2 54 10 3 11 92 19 92 8z"/>
</g>
</svg>
